Coordinates
version=1
nRows=21
nColumns=33
inDegrees=yes

Units are S.I. units (second, meters, Newtons, ...)
Angles are in degrees.

endheader
time	ground_thorax_rot_x	ground_thorax_rot_y	ground_thorax_rot_z	ground_thorax_tx	ground_thorax_ty	ground_thorax_tz	clav_prot_r	clav_elev_r	scapula_abduction_r	scapula_elevation_r	scapula_upward_rot_r	scapula_winging_r	shoulder_elv_r	plane_of_elev_r	axial_rot_r	elbow_flexion_r	pro_sup_r	wrist_flex_r	wrist_dev_r	clav_prot_l	clav_elev_l	scapula_abduction_l	scapula_elevation_l	scapula_upward_rot_l	scapula_winging_l	shoulder_elv_l	plane_of_elev_l	axial_rot_l	elbow_flexion_l	pro_sup_l	wrist_flex_l	wrist_dev_l
      2.64000000	     37.64101613	     11.86774112	     15.48081386	   -220.09157989	    843.24121414	      9.26456818	     15.03287289	     37.79349838	     38.72329616	     45.00000000	    -45.00000000	   1710.41485290	   -287.78769210	     31.05271581	     68.68591565	    385.21127415	    156.25676348	     12.74213019	      4.67039275	     10.64514294	    -45.00000000	    -38.27517331	     45.00000000	    -45.00000000	  -3498.92525550	    438.23551348	     19.26911280	    -48.70880602	    741.77173087	    139.65146123	     -2.97005499	    -13.53154785
      2.65000000	     37.66553242	     11.89536589	     15.44054805	   -220.29095422	    842.65885146	      8.86748528	     14.97371838	     37.81570968	     38.47816203	     45.00000000	    -45.00000000	   1710.66514273	   -287.63212209	     31.03584550	     68.05723461	    385.30997097	    155.66287108	     12.56584915	      4.84086304	     10.46814056	    -45.00000000	    -38.32514163	     45.00000000	    -44.85934189	  -3498.90606052	    438.26866218	     19.12854832	    -49.26332982	    741.74570685	    139.03632832	     -3.08206109	    -13.54933984
      2.66000000	     37.67650726	     12.03084014	     15.62662635	   -220.23387869	    841.95515356	      8.48091128	     14.98876955	     37.72260711	     38.50648528	     45.00000000	    -45.00000000	   1710.65102871	   -287.76443508	     31.02758085	     67.79193829	    385.32674431	    155.22260809	     12.65726680	      4.66622354	     10.57220809	    -45.00000000	    -38.19399095	     45.00000000	    -45.00000000	  -3498.90799043	    438.15220583	     19.15963764	    -49.31776636	    741.72063122	    138.48595264	     -2.97458602	    -13.57064349
      2.67000000	     37.66277049	     12.19614866	     15.79024352	   -219.93390861	    841.15793112	      8.11764252	     15.00404017	     37.77208000	     38.36526162	     45.00000000	    -45.00000000	   1710.77678417	   -287.74703607	     31.03780286	     67.50543294	    385.37975167	    155.04127011	     12.56304505	      4.78420718	     10.57791033	    -45.00000000	    -38.20970822	     45.00000000	    -45.00000000	  -3498.93203545	    438.15373532	     19.11179126	    -49.34433228	    741.69509776	    137.89475245	     -3.09164984	    -13.64819792
      2.68000000	     37.65334716	     12.31349249	     15.94028644	   -219.41468695	    840.28263326	      7.77500867	     14.97936097	     37.68097432	     38.34391021	     45.00000000	    -45.00000000	   1710.84119016	   -287.84627793	     31.05678211	     67.25528839	    385.42178103	    155.09706932	     12.56087512	      4.75354027	     10.64079922	    -45.00000000	    -38.19239020	     45.00000000	    -45.00000000	  -3498.93729657	    438.06569664	     19.12921745	    -49.34402681	    741.65073519	    137.26527144	     -3.09631679	    -13.69355955
      2.69000000	     37.61624898	     12.53687691	     16.15598282	   -218.70919569	    839.35659086	      7.45197398	     14.74309004	     37.66182308	     38.09264999	     45.00000000	    -45.00000000	   1711.05648421	   -287.67545964	     31.11251869	     66.87532869	    385.52266954	    155.39958793	     12.48963213	      4.81570326	     10.77048699	    -45.00000000	    -38.37421005	     45.00000000	    -45.00000000	  -3498.91319318	    437.96789755	     19.06857974	    -49.34659375	    741.75122028	    136.54209204	     -3.17904784	    -13.74622373
      2.70000000	     37.60366906	     12.77370799	     16.38413250	   -217.86279243	    838.41080175	      7.14719643	     14.78138019	     37.60061966	     37.91657971	     45.00000000	    -45.00000000	   1711.14187506	   -287.69282636	     31.18539267	     66.54340785	    385.53145875	    155.82780018	     12.46435523	      4.82384098	     10.82189983	    -45.00000000	    -38.42026435	     45.00000000	    -45.00000000	  -3498.97012217	    437.93508224	     19.03005825	    -49.32427188	    741.69960501	    135.86867463	     -3.20049941	    -13.79308786
      2.71000000	     37.55411558	     13.01912006	     16.60269450	   -216.92103039	    837.46938020	      6.85848993	     14.51048390	     37.55767082	     37.69494319	     45.00000000	    -45.00000000	   1711.34566754	   -287.57925939	     31.19587127	     66.12750695	    385.63654700	    156.36842339	     12.40621368	      4.86988283	     10.95196672	    -45.00000000	    -38.59144717	     45.00000000	    -45.00000000	  -3498.94852597	    437.85995156	     19.03280627	    -49.33735483	    741.73935820	    135.19001636	     -3.23932735	    -13.83327036
      2.72000000	     37.76475561	     12.75702098	     16.56008416	   -215.93969455	    836.56592608	      6.58921242	     14.78775653	     37.71517236	     38.37515857	     45.00000000	    -45.00000000	   1711.11250313	   -287.94557185	     31.22674563	     65.85402624	    385.41658186	    157.09433609	     12.44627199	      4.81502146	     10.80369422	    -45.00000000	    -38.06927347	     45.00000000	    -45.00000000	  -3499.15103546	    437.72042965	     19.20204261	    -49.19893032	    741.55578146	    134.33703604	     -3.17763877	    -13.86867270
      2.73000000	     37.65214307	     13.01797245	     16.87192657	   -214.96419410	    835.72915526	      6.34324673	     14.56899540	     37.56687382	     38.10770107	     45.00000000	    -45.00000000	   1711.45435465	   -287.79768620	     31.14970559	     65.51497405	    385.57084256	    157.64684015	     12.37152285	      4.88392792	     10.95302026	    -45.00000000	    -38.37784120	     45.00000000	    -45.00000000	  -3499.05021185	    437.70348940	     19.07247793	    -49.26671044	    741.61319542	    133.70419745	     -3.27499730	    -13.94559827
      2.74000000	     37.65020150	     13.34298761	     17.01332260	   -214.03406624	    834.99527552	      6.12703099	     14.62172728	     37.62329193	     37.83396887	     45.00000000	    -45.00000000	   1711.44476165	   -287.72558107	     31.26386405	     65.06693686	    385.63254013	    158.15051256	     12.33241587	      4.88669387	     10.92730877	    -45.00000000	    -38.55789176	     45.00000000	    -45.00000000	  -3499.15607230	    437.71454356	     19.02164177	    -49.29775235	    741.75642021	    133.21605988	     -3.26741213	    -13.91947140
      2.75000000	     37.63526235	     13.39769078	     17.17858978	   -213.16756812	    834.39380837	      5.94590244	     14.58023506	     37.56525338	     37.78755811	     45.00000000	    -45.00000000	   1711.52689923	   -287.72854149	     31.40355608	     64.59595758	    385.57651227	    158.60257466	     12.30455882	      4.89775612	     10.99153552	    -45.00000000	    -38.53480901	     45.00000000	    -45.00000000	  -3499.16818736	    437.66154820	     19.01328125	    -49.40178184	    741.66194690	    132.87740575	     -3.26150704	    -13.93992324
      2.76000000	     37.67534921	     13.43936058	     17.20153763	   -212.36402633	    833.94817891	      5.80371540	     14.60922770	     37.61818401	     37.93979808	     45.00000000	    -45.00000000	   1711.50207385	   -287.72133247	     31.38141329	     64.18738537	    385.59649607	    159.00684661	     12.26417184	      4.86499012	     10.98155503	    -45.00000000	    -38.50855804	     45.00000000	    -45.00000000	  -3499.21443954	    437.66737037	     19.04385650	    -49.46621481	    741.72895563	    132.68067108	     -3.25108341	    -13.90431742
      2.77000000	     37.69290075	     13.41319620	     17.25212409	   -211.60837324	    833.66738638	      5.70281232	     14.78102639	     37.66032970	     38.04094458	     45.00000000	    -45.00000000	   1711.45719319	   -287.77995161	     31.51430886	     63.82860818	    385.53742958	    159.38467034	     12.21276585	      4.85317156	     10.91908248	    -45.00000000	    -38.45406415	     45.00000000	    -45.00000000	  -3499.27351988	    437.68518280	     19.05579204	    -49.52801041	    741.71611119	    132.65425936	     -3.24321944	    -13.87320156
      2.78000000	     37.68918616	     13.46270058	     17.29683346	   -210.86579383	    833.53939540	      5.64059003	     14.66303051	     37.64471188	     38.05347877	     45.00000000	    -45.00000000	   1711.53165645	   -287.73120756	     31.49493960	     63.41014820	    385.60267083	    159.79425005	     12.12893724	      4.83954966	     10.96927871	    -45.00000000	    -38.51459776	     45.00000000	    -45.00000000	  -3499.25478595	    437.66373807	     19.06293473	    -49.60062797	    741.80544503	    132.77315352	     -3.25705866	    -13.82218028
      2.79000000	     37.64914937	     13.55599052	     17.33505086	   -210.09832956	    833.53377475	      5.61230813	     14.58007826	     37.61942714	     37.99335930	     45.00000000	    -45.00000000	   1711.56340572	   -287.62320893	     31.54461250	     62.92121479	    385.67725294	    160.25176302	     12.03024816	      4.81115425	     11.05335281	    -45.00000000	    -38.68676292	     45.00000000	    -45.00000000	  -3499.24419125	    437.68742540	     19.05071144	    -49.66658829	    741.91490088	    133.03507590	     -3.27451779	    -13.75496826
      2.80000000	     37.65030018	     13.60734103	     17.36601260	   -209.27114730	    833.60733369	      5.61087182	     14.54784323	     37.59776253	     37.93499649	     45.00000000	    -45.00000000	   1711.60285398	   -287.53336044	     31.66714243	     62.45916414	    385.68019436	    160.74815204	     11.94079965	      4.76956893	     11.11940403	    -45.00000000	    -38.79758894	     45.00000000	    -45.00000000	  -3499.26371425	    437.70778194	     19.07083366	    -49.71221520	    741.97243102	    133.43775729	     -3.28260934	    -13.68315637
      2.81000000	     37.61588138	     13.69861324	     17.43659759	   -208.35374087	    833.71083228	      5.62813433	     14.37406581	     37.54205176	     37.96114273	     45.00000000	    -45.00000000	   1711.69146801	   -287.42137642	     31.62936050	     61.97093914	    385.70777704	    161.31117173	     11.84712164	      4.73248521	     11.23909650	    -45.00000000	    -38.93612381	     45.00000000	    -45.00000000	  -3499.26479493	    437.66878023	     19.06592307	    -49.77514524	    742.08168773	    133.96182003	     -3.30829705	    -13.60789288
      2.82000000	     37.65893749	     13.45887178	     17.37952958	   -207.31413432	    833.80161893	      5.65652771	     14.49639442	     37.59044136	     38.47182401	     45.00000000	    -45.00000000	   1711.60998393	   -287.72789990	     31.64876497	     61.59927532	    385.47711409	    161.98058638	     11.82634223	      4.64812231	     11.25062637	    -45.00000000	    -38.48309019	     45.00000000	    -45.00000000	  -3499.34284192	    437.72182940	     19.25742992	    -49.82391183	    741.98917308	    134.74244721	     -3.26788930	    -13.51749944
      2.83000000	     37.76885469	     13.30854787	     17.24171905	   -206.13574963	    833.84482155	      5.69070327	     14.74785290	     37.63728892	     38.64015058	     45.00000000	    -45.00000000	   1711.43190736	   -287.73375501	     31.98214560	     61.29618636	    385.49069955	    162.81180715	     11.74871247	      4.58450285	     11.08155574	    -45.00000000	    -38.32406681	     45.00000000	    -45.00000000	  -3499.51001672	    437.69706901	     19.30961092	    -49.96018084	    742.13268355	    135.78333547	     -3.26930487	    -13.39239808
      2.84000000	     37.69828007	     13.43212384	     17.41475317	   -204.79460528	    833.81784798	      5.72886498	     14.55335952	     37.55215326	     38.66317812	     45.00000000	    -45.00000000	   1711.54034647	   -287.69470337	     32.02604760	     60.85435725	    385.44884342	    163.66727754	     11.66239605	      4.57980627	     11.25016169	    -45.00000000	    -38.37569959	     45.00000000	    -45.00000000	  -3499.47379423	    437.67306563	     19.31811764	    -50.12019119	    742.23194499	    136.86417390	     -3.27118747	    -13.27231261
